<svg width="220" height="220" viewBox="0 0 220 220" fill="none" xmlns="http://www.w3.org/2000/svg">
<path opacity="0.0714286" d="M168.541 71.5616C171.902 73.3222 173.892 76.9148 173.604 80.6991L167.645 158.883C167.312 163.256 164.03 166.833 159.703 167.54L87.8248 179.283C83.8676 179.93 79.9314 178.021 77.9879 174.513L38.3531 102.975C36.4097 99.4669 36.8777 95.1157 39.5227 92.1007L87.5666 37.337C90.4587 34.0404 95.23 33.1517 99.1132 35.1862L168.541 71.5616Z" stroke="url(#paint0_linear_317_1884)"/>
<path opacity="0.142857" d="M178.9 97.5034C181.305 100.437 181.734 104.521 179.991 107.891L143.973 177.53C141.958 181.426 137.539 183.436 133.279 182.395L62.53 165.107C58.6348 164.155 55.757 160.859 55.3381 156.871L46.7922 75.5229C46.3733 71.5349 48.5034 67.7131 52.1157 65.9718L117.726 34.344C121.676 32.4397 126.417 33.4868 129.197 36.878L178.9 97.5034Z" stroke="url(#paint1_linear_317_1884)"/>
<path opacity="0.214286" d="M178.303 125.431C179.372 129.072 178.172 132.999 175.251 135.42L114.899 185.443C111.523 188.241 106.67 188.364 103.156 185.74L44.7827 142.168C41.5689 139.769 40.2068 135.611 41.3787 131.776L65.2816 53.5541C66.4534 49.7192 69.9069 47.0337 73.912 46.8429L146.659 43.378C151.039 43.1694 154.993 45.9863 156.228 50.1946L178.303 125.431Z" stroke="url(#paint2_linear_317_1884)"/>
<path opacity="0.285714" d="M166.848 150.905C166.409 154.676 163.769 157.823 160.134 158.91L85.0448 181.363C80.8452 182.619 76.3319 180.836 74.1221 177.048L37.4042 114.118C35.3829 110.653 35.7536 106.292 38.3306 103.219L90.8793 40.5631C93.4564 37.4904 97.6846 36.3678 101.446 37.7579L169.766 63.0081C173.877 64.5278 176.416 68.6652 175.909 73.0211L166.848 150.905Z" stroke="url(#paint3_linear_317_1884)"/>
<path opacity="0.357143" d="M146.356 169.873C144.479 173.174 140.818 175.04 137.045 174.619L59.1581 165.933C54.8027 165.447 51.3456 162.044 50.7908 157.695L41.5681 85.4094C41.0605 81.4303 43.1057 77.5604 46.679 75.7389L119.516 38.6081C123.089 36.7865 127.421 37.4058 130.34 40.1555L183.37 90.109C186.56 93.1141 187.28 97.9129 185.113 101.724L146.356 169.873Z" stroke="url(#paint4_linear_317_1884)"/>
<path opacity="0.428571" d="M120.082 179.326C117.065 181.631 112.965 181.918 109.656 180.055L41.3534 141.612C37.5342 139.462 35.6814 134.979 36.8687 130.76L56.6099 60.6134C57.6965 56.7523 61.091 53.9895 65.0923 53.7095L146.637 48.0045C150.639 47.7246 154.384 49.9878 155.998 53.66L185.304 120.375C187.067 124.388 185.856 129.085 182.373 131.746L120.082 179.326Z" stroke="url(#paint5_linear_317_1884)"/>
<path opacity="0.5" d="M92.2074 177.757C88.53 178.698 84.6445 177.36 82.3263 174.353L34.4666 112.263C31.7904 108.792 31.8359 103.94 34.5768 100.52L80.1429 43.6678C82.6511 40.5384 86.8544 39.3221 90.6466 40.6285L167.939 67.2555C171.731 68.5619 174.295 72.1095 174.345 76.1205L175.268 148.988C175.323 153.371 172.373 157.222 168.128 158.31L92.2074 177.757Z" stroke="url(#paint6_linear_317_1884)"/>
<path opacity="0.571429" d="M67.1577 165.414C63.4061 164.844 60.3537 162.094 59.3946 158.421L39.5874 82.557C38.4797 78.3142 40.4175 73.8643 44.2773 71.7871L108.421 37.269C111.952 35.3688 116.296 35.8919 119.275 38.5762L180.027 93.3046C183.007 95.9889 183.981 100.256 182.461 103.968L154.854 171.401C153.193 175.458 148.972 177.852 144.639 177.193L67.1577 165.414Z" stroke="url(#paint7_linear_317_1884)"/>
<path opacity="0.642857" d="M48.9188 144.259C45.6894 142.268 43.9545 138.546 44.506 134.791L55.9012 57.2135C56.5386 52.8744 60.062 49.5346 64.4278 49.1313L136.949 42.433C140.942 42.0642 144.736 44.2429 146.43 47.8776L180.98 122.009C182.674 125.644 181.904 129.951 179.055 132.774L127.311 184.051C124.196 187.138 119.374 187.692 115.642 185.391L48.9188 144.259Z" stroke="url(#paint8_linear_317_1884)"/>
<path opacity="0.714286" d="M40.3945 117.658C38.1997 114.564 38.0565 110.46 40.0302 107.22L80.8166 40.2635C83.0981 36.5182 87.6467 34.8212 91.8237 36.1569L161.195 58.3411C165.014 59.5625 167.655 63.0506 167.795 67.058L170.648 148.805C170.788 152.812 168.397 156.476 164.672 157.961L97.0165 184.933C92.9428 186.557 88.2869 185.182 85.7499 181.605L40.3945 117.658Z" stroke="url(#paint9_linear_317_1884)"/>
<path opacity="0.785714" d="M42.9369 89.8401C42.125 86.1332 43.596 82.2991 46.6786 80.0878L110.371 34.399C113.934 31.8434 118.783 32.0593 122.106 34.9214L177.299 82.4618C180.338 85.0791 181.407 89.3226 179.97 93.0665L150.672 169.429C149.236 173.173 145.603 175.611 141.595 175.522L68.783 173.901C64.3995 173.804 60.6515 170.718 59.7131 166.433L42.9369 89.8401Z" stroke="url(#paint10_linear_317_1884)"/>
<path opacity="0.857143" d="M56.1417 65.2271C56.8423 61.4961 59.6952 58.5403 63.3977 57.7096L139.869 40.5521C144.146 39.5926 148.524 41.6857 150.464 45.6179L182.705 110.959C184.48 114.556 183.806 118.88 181.021 121.766L124.232 180.601C121.447 183.487 117.151 184.312 113.496 182.663L47.102 152.706C43.1065 150.903 40.8628 146.599 41.6721 142.289L56.1417 65.2271Z" stroke="url(#paint11_linear_317_1884)"/>
<path opacity="0.928571" d="M87.5256 43.6497L164.617 57.7506C168.928 58.5391 172.14 62.1755 172.39 66.552L176.55 139.306C176.779 143.311 174.469 147.028 170.777 148.596L95.5295 180.553C91.8378 182.121 87.56 181.201 84.8397 178.254L35.4211 124.721C32.4483 121.5 32.0646 116.663 34.4922 113.013L77.9064 47.7349C80.0092 44.5731 83.7917 42.9668 87.5256 43.6497Z" stroke="url(#paint12_linear_317_1884)"/>
<path d="M104.773 40.1388C107.944 38.0501 112.054 38.0501 115.225 40.1388L180.681 83.2556C184.341 85.6665 185.876 90.2683 184.398 94.3941L159.814 162.992C158.461 166.768 154.882 169.287 150.871 169.287H69.1265C65.1155 169.287 61.5366 166.768 60.1834 162.992L35.5995 94.3941C34.121 90.2683 35.6567 85.6665 39.3167 83.2556L104.773 40.1388Z" stroke="url(#paint13_linear_317_1884)"/>
<defs>
<linearGradient id="paint0_linear_317_1884" x1="86.807" y1="68.4565" x2="133.849" y2="153.28" gradientUnits="userSpaceOnUse">
<stop offset="0.14" stop-color="#876CF5" stop-opacity="0"/>
<stop offset="0.565" stop-color="#1FDBFA" stop-opacity="0.6"/>
<stop offset="1" stop-color="#876CF5" stop-opacity="0.36"/>
</linearGradient>
<linearGradient id="paint1_linear_317_1884" x1="104.875" y1="62.6919" x2="115.02" y2="159.165" gradientUnits="userSpaceOnUse">
<stop offset="0.14" stop-color="#876CF5" stop-opacity="0"/>
<stop offset="0.565" stop-color="#1FDBFA" stop-opacity="0.6"/>
<stop offset="1" stop-color="#876CF5" stop-opacity="0.36"/>
</linearGradient>
<linearGradient id="paint2_linear_317_1884" x1="123.758" y1="64.4487" x2="95.3847" y2="157.208" gradientUnits="userSpaceOnUse">
<stop offset="0.14" stop-color="#876CF5" stop-opacity="0"/>
<stop offset="0.565" stop-color="#1FDBFA" stop-opacity="0.6"/>
<stop offset="1" stop-color="#876CF5" stop-opacity="0.36"/>
</linearGradient>
<linearGradient id="paint3_linear_317_1884" x1="140.454" y1="73.4502" x2="78.0944" y2="147.73" gradientUnits="userSpaceOnUse">
<stop offset="0.14" stop-color="#876CF5" stop-opacity="0"/>
<stop offset="0.565" stop-color="#1FDBFA" stop-opacity="0.6"/>
<stop offset="1" stop-color="#876CF5" stop-opacity="0.36"/>
</linearGradient>
<linearGradient id="paint4_linear_317_1884" x1="152.308" y1="88.2599" x2="65.9006" y2="132.265" gradientUnits="userSpaceOnUse">
<stop offset="0.14" stop-color="#876CF5" stop-opacity="0"/>
<stop offset="0.565" stop-color="#1FDBFA" stop-opacity="0.6"/>
<stop offset="1" stop-color="#876CF5" stop-opacity="0.36"/>
</linearGradient>
<linearGradient id="paint5_linear_317_1884" x1="157.433" y1="106.528" x2="60.7115" y2="113.288" gradientUnits="userSpaceOnUse">
<stop offset="0.14" stop-color="#876CF5" stop-opacity="0"/>
<stop offset="0.565" stop-color="#1FDBFA" stop-opacity="0.6"/>
<stop offset="1" stop-color="#876CF5" stop-opacity="0.36"/>
</linearGradient>
<linearGradient id="paint6_linear_317_1884" x1="155.02" y1="125.347" x2="63.3351" y2="93.7933" gradientUnits="userSpaceOnUse">
<stop offset="0.14" stop-color="#876CF5" stop-opacity="0"/>
<stop offset="0.565" stop-color="#1FDBFA" stop-opacity="0.6"/>
<stop offset="1" stop-color="#876CF5" stop-opacity="0.36"/>
</linearGradient>
<linearGradient id="paint7_linear_317_1884" x1="145.447" y1="141.726" x2="73.3616" y2="76.8527" gradientUnits="userSpaceOnUse">
<stop offset="0.14" stop-color="#876CF5" stop-opacity="0"/>
<stop offset="0.565" stop-color="#1FDBFA" stop-opacity="0.6"/>
<stop offset="1" stop-color="#876CF5" stop-opacity="0.36"/>
</linearGradient>
<linearGradient id="paint8_linear_317_1884" x1="130.238" y1="153.061" x2="89.2284" y2="65.1597" gradientUnits="userSpaceOnUse">
<stop offset="0.14" stop-color="#876CF5" stop-opacity="0"/>
<stop offset="0.565" stop-color="#1FDBFA" stop-opacity="0.6"/>
<stop offset="1" stop-color="#876CF5" stop-opacity="0.36"/>
</linearGradient>
<linearGradient id="paint9_linear_317_1884" x1="111.812" y1="157.551" x2="108.425" y2="60.6047" gradientUnits="userSpaceOnUse">
<stop offset="0.14" stop-color="#876CF5" stop-opacity="0"/>
<stop offset="0.565" stop-color="#1FDBFA" stop-opacity="0.6"/>
<stop offset="1" stop-color="#876CF5" stop-opacity="0.36"/>
</linearGradient>
<linearGradient id="paint10_linear_317_1884" x1="93.0974" y1="154.48" x2="127.874" y2="63.9292" gradientUnits="userSpaceOnUse">
<stop offset="0.14" stop-color="#876CF5" stop-opacity="0"/>
<stop offset="0.565" stop-color="#1FDBFA" stop-opacity="0.6"/>
<stop offset="1" stop-color="#876CF5" stop-opacity="0.36"/>
</linearGradient>
<linearGradient id="paint11_linear_317_1884" x1="77.071" y1="144.335" x2="144.458" y2="74.5885" gradientUnits="userSpaceOnUse">
<stop offset="0.14" stop-color="#876CF5" stop-opacity="0"/>
<stop offset="0.565" stop-color="#1FDBFA" stop-opacity="0.6"/>
<stop offset="1" stop-color="#876CF5" stop-opacity="0.36"/>
</linearGradient>
<linearGradient id="paint12_linear_317_1884" x1="66.2789" y1="128.734" x2="155.542" y2="90.8624" gradientUnits="userSpaceOnUse">
<stop offset="0.14" stop-color="#876CF5" stop-opacity="0"/>
<stop offset="0.565" stop-color="#1FDBFA" stop-opacity="0.6"/>
<stop offset="1" stop-color="#876CF5" stop-opacity="0.36"/>
</linearGradient>
<linearGradient id="paint13_linear_317_1884" x1="62.4376" y1="110.152" x2="159.395" y2="110.152" gradientUnits="userSpaceOnUse">
<stop offset="0.14" stop-color="#876CF5" stop-opacity="0"/>
<stop offset="0.565" stop-color="#1FDBFA" stop-opacity="0.6"/>
<stop offset="1" stop-color="#876CF5" stop-opacity="0.36"/>
</linearGradient>
</defs>
</svg>
