<svg width="20" height="20" viewBox="0 0 20 20" fill="none" xmlns="http://www.w3.org/2000/svg">
<g clip-path="url(#clip0_146_2734)">
<path d="M10 0.5C4.48603 0.5 2.68755e-05 4.53733 2.68755e-05 9.5C2.68755e-05 11.235 0.549027 12.9153 1.58936 14.368C1.39236 16.547 0.86436 18.1647 0.0976936 18.931C-0.00363979 19.0323 -0.0289731 19.1873 0.0350269 19.3153C0.0920269 19.4297 0.20836 19.5 0.33336 19.5C0.348694 19.5 0.36436 19.499 0.380027 19.4967C0.515027 19.4777 3.65103 19.026 5.91903 17.7173C7.20736 18.237 8.57936 18.5 10 18.5C15.514 18.5 20 14.4627 20 9.5C20 4.53733 15.514 0.5 10 0.5Z" fill="#8C8B8B"/>
</g>
<defs>
<clipPath id="clip0_146_2734">
<rect width="20" height="20" fill="white"/>
</clipPath>
</defs>
</svg>
