<svg width="21" height="21" viewBox="0 0 21 21" fill="none" xmlns="http://www.w3.org/2000/svg">
<path d="M12.6083 8.3916L8.3916 12.6083C7.84994 12.0666 7.5166 11.3249 7.5166 10.4999C7.5166 8.84993 8.84993 7.5166 10.4999 7.5166C11.3249 7.5166 12.0666 7.84994 12.6083 8.3916Z" stroke="#8C8B8B" stroke-width="1.5" stroke-linecap="round" stroke-linejoin="round"/>
<path d="M15.35 5.3084C13.8917 4.2084 12.225 3.6084 10.5 3.6084C7.55833 3.6084 4.81666 5.34173 2.90833 8.34173C2.15833 9.51673 2.15833 11.4917 2.90833 12.6667C3.56666 13.7001 4.33333 14.5917 5.16666 15.3084" stroke="#8C8B8B" stroke-width="1.5" stroke-linecap="round" stroke-linejoin="round"/>
<path d="M7.5166 16.7751C8.4666 17.1751 9.47493 17.3917 10.4999 17.3917C13.4416 17.3917 16.1833 15.6584 18.0916 12.6584C18.8416 11.4834 18.8416 9.5084 18.0916 8.3334C17.8166 7.90006 17.5166 7.49173 17.2083 7.1084" stroke="#8C8B8B" stroke-width="1.5" stroke-linecap="round" stroke-linejoin="round"/>
<path d="M13.425 11.083C13.2083 12.258 12.25 13.2163 11.075 13.433" stroke="#8C8B8B" stroke-width="1.5" stroke-linecap="round" stroke-linejoin="round"/>
<path d="M8.39163 12.6084L2.16663 18.8334" stroke="#8C8B8B" stroke-width="1.5" stroke-linecap="round" stroke-linejoin="round"/>
<path d="M18.8334 2.16699L12.6084 8.39199" stroke="#8C8B8B" stroke-width="1.5" stroke-linecap="round" stroke-linejoin="round"/>
</svg>
