<svg width="25" height="25" viewBox="0 0 25 25" fill="none" xmlns="http://www.w3.org/2000/svg">
<g clip-path="url(#clip0_146_2991)">
<path d="M10.8871 1.04029C10.4671 0.785313 9.93467 0.830313 9.56718 1.15281C9.19218 1.4678 9.07216 1.99281 9.26717 2.44279C10.5797 5.52533 10.2347 6.9953 9.91216 7.59529C9.56719 8.22531 9.01215 8.39029 8.78716 8.42783C8.17965 8.54029 7.72216 7.34031 7.71466 7.33281C7.57216 6.91281 7.18965 6.6203 6.74717 6.58281C6.29714 6.55282 5.88466 6.77031 5.66717 7.16032C3.67966 10.7828 3.15464 14.1803 4.11467 17.2703C5.51717 21.8003 9.61964 23.9153 9.79217 24.0053C9.94964 24.0878 10.1297 24.1253 10.2947 24.1253C10.5722 24.1253 10.8347 24.0278 11.0447 23.8403C11.3897 23.5328 11.5172 23.0453 11.3596 22.6103C11.0147 21.6728 10.4072 18.9578 11.6672 17.6303C12.4396 16.8203 12.9797 16.0778 13.3472 15.4403C16.3622 20.1803 14.7497 21.6653 14.7197 21.7028C14.7122 21.7028 14.7122 21.7103 14.7047 21.7103C14.1947 22.0628 14.0746 22.7603 14.4197 23.2703C14.7722 23.7803 15.4622 23.9153 15.9797 23.5703C15.9797 23.5628 15.9872 23.5628 15.9946 23.5553C19.6472 20.9978 21.4472 18.0353 21.3421 14.7353C21.1172 7.3778 11.3071 1.29531 10.8871 1.04029Z" fill="#FF7A00"/>
</g>
<defs>
<clipPath id="clip0_146_2991">
<rect width="24" height="24" fill="white" transform="translate(0.5 0.5)"/>
</clipPath>
</defs>
</svg>
