<svg width="20" height="20" viewBox="0 0 20 20" fill="none" xmlns="http://www.w3.org/2000/svg">
<g clip-path="url(#clip0_146_2801)">
<path fill-rule="evenodd" clip-rule="evenodd" d="M0.654297 8.40247H5.10742C5.46712 8.40247 5.76172 8.74347 5.76172 9.16171V19.2427C5.76172 19.6591 5.46712 20.0019 5.10742 20.0019H0.654297C0.294596 20.0019 0 19.6609 0 19.2427V9.16171C0 8.74347 0.294596 8.40247 0.654297 8.40247ZM10.2637 0.840304C10.6087 -1.18494 13.4733 0.680169 13.6621 3.94505C13.7191 4.94354 13.6296 6.10594 13.418 7.40398H17.5114C19.2139 7.48122 20.6999 8.8923 19.6501 11.2096C19.8893 12.2194 19.9251 13.4044 19.2757 13.8716C19.3571 15.4654 18.9762 16.4526 18.2633 17.2325C18.2161 18.0294 18.0697 18.7378 17.7376 19.2823C17.1875 20.1809 16.7415 19.9661 15.8757 19.9661H8.96322C7.86784 19.9661 7.27051 19.6176 6.55436 18.5777V9.6666C8.61491 9.02229 9.71029 5.75929 10.2637 3.61724V0.840304Z" fill="#8C8B8B"/>
</g>
<defs>
<clipPath id="clip0_146_2801">
<rect width="20" height="20" fill="white"/>
</clipPath>
</defs>
</svg>
