<svg width="25" height="20" viewBox="0 0 25 20" fill="none" xmlns="http://www.w3.org/2000/svg">
<path d="M23.9922 13.0781C23.8477 12.7266 23.5039 12.4648 23.125 12.4648H21.25V6.875C21.25 5.15234 19.8477 3.75 18.125 3.75H13.125C12.4348 3.75 11.875 4.30898 11.875 5C11.875 5.69102 12.4348 6.25 13.125 6.25H18.125C18.4688 6.25 18.75 6.53125 18.75 6.875V12.4648H16.875C16.6896 12.4649 16.5084 12.52 16.3542 12.623C16.2001 12.7261 16.0799 12.8726 16.009 13.0439C15.9381 13.2152 15.9195 13.4037 15.9557 13.5856C15.9919 13.7674 16.0812 13.9345 16.2123 14.0656L19.3373 17.1914C19.5196 17.4102 19.7617 17.5 20 17.5C20.2383 17.5 20.4797 17.4084 20.6629 17.2254L23.7879 14.0996C24.0547 13.832 24.1368 13.4297 23.9922 13.0781ZM11.875 13.75H6.87503C6.53128 13.75 6.25003 13.4688 6.25003 13.125V7.5H8.12503C8.31046 7.49991 8.4917 7.44486 8.64584 7.3418C8.79998 7.23873 8.92011 7.09228 8.99105 6.92096C9.06198 6.74964 9.08053 6.56113 9.04435 6.37927C9.00818 6.19741 8.9189 6.03035 8.7878 5.89922L5.6628 2.77344C5.4805 2.59141 5.23831 2.5 5.00003 2.5C4.76175 2.5 4.51956 2.59141 4.33597 2.77461L1.21097 5.90039C0.944172 6.16797 0.863703 6.57031 1.00902 6.92188C1.15433 7.27344 1.49613 7.5 1.87503 7.5H3.75003V13.125C3.75003 14.8477 5.15238 16.25 6.87503 16.25H11.875C12.5653 16.25 13.125 15.691 13.125 15C13.125 14.309 12.5664 13.75 11.875 13.75Z" fill="#8C8B8B"/>
</svg>
