<svg width="24" height="24" viewBox="0 0 24 24" fill="none" xmlns="http://www.w3.org/2000/svg">
<g clip-path="url(#clip0_317_1901)">
<path d="M19.349 10.04C18.669 6.59 15.639 4 11.999 4C9.10902 4 6.59902 5.64 5.34902 8.04C2.33902 8.36 -0.000976562 10.91 -0.000976562 14C-0.000976562 17.31 2.68902 20 5.99902 20H18.999C21.759 20 23.999 17.76 23.999 15C23.999 12.36 21.949 10.22 19.349 10.04ZM18.999 18H5.99902C3.78902 18 1.99902 16.21 1.99902 14C1.99902 11.95 3.52902 10.24 5.55902 10.03L6.62902 9.92L7.12902 8.97C8.07902 7.14 9.93902 6 11.999 6C14.619 6 16.879 7.86 17.389 10.43L17.689 11.93L19.219 12.04C20.779 12.14 21.999 13.45 21.999 15C21.999 16.65 20.649 18 18.999 18ZM7.99902 13H10.549V16H13.449V13H15.999L11.999 9L7.99902 13Z" fill="white"/>
</g>
<defs>
<clipPath id="clip0_317_1901">
<rect width="24" height="24" fill="white" transform="translate(-0.000976562)"/>
</clipPath>
</defs>
</svg>
