<svg width="36" height="37" viewBox="0 0 36 37" fill="none" xmlns="http://www.w3.org/2000/svg">
<g clip-path="url(#clip0_318_651)">
<path d="M29.024 15.56C28.004 10.385 23.459 6.5 17.999 6.5C13.664 6.5 9.89902 8.96 8.02402 12.56C3.50902 13.04 -0.000976562 16.865 -0.000976562 21.5C-0.000976562 26.465 4.03402 30.5 8.99902 30.5H28.499C32.639 30.5 35.999 27.14 35.999 23C35.999 19.04 32.924 15.83 29.024 15.56ZM28.499 27.5H8.99902C5.68402 27.5 2.99902 24.815 2.99902 21.5C2.99902 18.425 5.29402 15.86 8.33902 15.545L9.94402 15.38L10.694 13.955C12.119 11.21 14.909 9.5 17.999 9.5C21.929 9.5 25.319 12.29 26.084 16.145L26.534 18.395L28.829 18.56C31.169 18.71 32.999 20.675 32.999 23C32.999 25.475 30.974 27.5 28.499 27.5ZM11.999 20H15.824V24.5H20.174V20H23.999L17.999 14L11.999 20Z" fill="#018AAF"/>
</g>
<defs>
<clipPath id="clip0_318_651">
<rect width="36" height="36" fill="white" transform="translate(-0.000976562 0.5)"/>
</clipPath>
</defs>
</svg>
