<svg width="20" height="21" viewBox="0 0 20 21" fill="none" xmlns="http://www.w3.org/2000/svg">
<g clip-path="url(#clip0_146_3556)">
<path d="M6.95326 1.43995C7.09517 1.0316 7.59884 0.887174 7.93558 1.15828L9.46383 2.38866C9.69904 2.57803 10.036 2.57215 10.2645 2.37468L11.7488 1.09172C12.0759 0.809027 12.5843 0.935788 12.7404 1.33894L13.4487 3.1686C13.5577 3.45021 13.8525 3.6136 14.1491 3.55682L16.0761 3.18793C16.5006 3.10664 16.8776 3.47063 16.8111 3.8978L16.5097 5.83649C16.4633 6.13488 16.6369 6.42376 16.9222 6.52288L18.7754 7.1669C19.1838 7.30881 19.3282 7.81248 19.0571 8.14922L17.8267 9.67746C17.6373 9.91268 17.6432 10.2496 17.8407 10.4781L19.1237 11.9625C19.4063 12.2896 19.2796 12.798 18.8764 12.954L17.0468 13.6623C16.7652 13.7714 16.6018 14.0661 16.6586 14.3627L17.0275 16.2897C17.1087 16.7143 16.7448 17.0912 16.3176 17.0248L14.3789 16.7234C14.0805 16.677 13.7916 16.8506 13.6925 17.1358L13.0485 18.9891C12.9066 19.3974 12.4029 19.5418 12.0662 19.2707L10.5379 18.0404C10.3027 17.851 9.96573 17.8569 9.73727 18.0543L8.25289 19.3373C7.92583 19.62 7.41742 19.4932 7.26135 19.0901L6.55304 17.2604C6.44402 16.9788 6.14926 16.8154 5.85268 16.8722L3.92568 17.2411C3.50109 17.3224 3.12417 16.9584 3.19059 16.5312L3.49201 14.5925C3.5384 14.2941 3.36482 14.0053 3.07959 13.9061L1.22631 13.2621C0.817963 13.1202 0.673536 12.6165 0.944639 12.2798L2.17502 10.7516C2.36439 10.5163 2.35851 10.1794 2.16105 9.95091L0.878078 8.46653C0.595389 8.13946 0.72215 7.63106 1.1253 7.47499L2.95497 6.76668C3.23657 6.65766 3.39996 6.3629 3.34318 6.06631L2.97429 4.13932C2.89301 3.71473 3.25699 3.33781 3.68416 3.40423L5.62285 3.70565C5.92124 3.75204 6.21012 3.57846 6.30924 3.29322L6.95326 1.43995Z" fill="white"/>
<path fill-rule="evenodd" clip-rule="evenodd" d="M14.1925 8.15634L8.75054 13.5983L5.80859 10.6563L6.69248 9.77246L8.75054 11.8305L13.3086 7.27246L14.1925 8.15634Z" fill="black"/>
</g>
<defs>
<clipPath id="clip0_146_3556">
<rect y="0.214844" width="20" height="20" fill="white"/>
</clipPath>
</defs>
</svg>
