<svg width="20" height="20" viewBox="0 0 20 20" fill="none" xmlns="http://www.w3.org/2000/svg">
<path d="M18.2703 8.63095L5.14063 1.13876C4.8638 0.98369 4.54632 0.916576 4.23041 0.946347C3.91451 0.976117 3.61516 1.10136 3.37217 1.30542C3.12919 1.50947 2.95409 1.78267 2.87016 2.08868C2.78623 2.39468 2.79746 2.71898 2.90235 3.01845L5.26016 9.9997L2.90235 16.9809C2.81945 17.2165 2.79421 17.4684 2.82872 17.7157C2.86324 17.963 2.95651 18.1984 3.10073 18.4022C3.24495 18.606 3.43591 18.7723 3.65762 18.8871C3.87933 19.002 4.12532 19.062 4.375 19.0622C4.6435 19.0616 4.90737 18.9922 5.14141 18.8606L5.14844 18.8559L18.2734 11.3505C18.5141 11.2143 18.7143 11.0166 18.8536 10.7777C18.9928 10.5388 19.0662 10.2672 19.0662 9.99071C19.0662 9.71418 18.9928 9.4426 18.8536 9.20371C18.7143 8.96482 18.5141 8.76717 18.2734 8.63095H18.2703ZM4.93672 16.8169L6.92266 10.9372H11.25C11.4986 10.9372 11.7371 10.8384 11.9129 10.6626C12.0887 10.4868 12.1875 10.2483 12.1875 9.9997C12.1875 9.75106 12.0887 9.5126 11.9129 9.33678C11.7371 9.16097 11.4986 9.0622 11.25 9.0622H6.92266L4.93594 3.18095L16.8703 9.9911L4.93672 16.8169Z" fill="white"/>
</svg>
