<svg width="32" height="32" viewBox="0 0 32 32" fill="none" xmlns="http://www.w3.org/2000/svg">
<rect width="32" height="32" fill="#56687A"/>
<path fill-rule="evenodd" clip-rule="evenodd" d="M12.2288 4C10.8749 4 9.57658 4.5378 8.61929 5.4951L4 10.1144V12.2288C4 13.7226 4.64166 15.0665 5.66441 16C4.64166 16.9335 4 18.2774 4 19.7712V21.8856L8.61929 26.5049C9.57658 27.4622 10.8749 28 12.2288 28C13.7226 28 15.0665 27.3584 16 26.3356C16.9335 27.3584 18.2774 28 19.7712 28C21.1251 28 22.4234 27.4622 23.3807 26.5049L28 21.8856V19.7712C28 18.2774 27.3584 16.9335 26.3356 16C27.3584 15.0665 28 13.7226 28 12.2288V10.1144L23.3807 5.4951C22.4234 4.5378 21.1251 4 19.7712 4C18.2774 4 16.9335 4.64166 16 5.6644C15.0665 4.64166 13.7226 4 12.2288 4ZM19.4553 16C19.3977 15.9475 19.3413 15.8936 19.286 15.8382L16 12.5523L12.714 15.8382C12.6587 15.8936 12.6023 15.9475 12.5447 16C12.6023 16.0525 12.6587 16.1064 12.714 16.1618L16 19.4477L19.286 16.1618C19.3413 16.1064 19.3977 16.0525 19.4553 16ZM17.3333 21.8856V22.8954C17.3333 24.2418 18.4248 25.3334 19.7712 25.3334C20.4178 25.3334 21.0379 25.0765 21.4951 24.6193L25.3334 20.781V19.7712C25.3334 18.4248 24.2418 17.3333 22.8954 17.3333C22.2489 17.3333 21.6288 17.5902 21.1716 18.0474L17.3333 21.8856ZM14.6667 21.8856L10.8284 18.0474C10.3712 17.5902 9.75115 17.3333 9.10457 17.3333C7.75815 17.3333 6.66666 18.4248 6.66666 19.7712V20.781L10.5049 24.6193C10.9621 25.0765 11.5822 25.3334 12.2288 25.3334C13.5752 25.3334 14.6667 24.2418 14.6667 22.8954V21.8856ZM14.6667 9.10457V10.1144L10.8284 13.9526C10.3712 14.4098 9.75115 14.6667 9.10457 14.6667C7.75815 14.6667 6.66666 13.5752 6.66666 12.2288V11.219L10.5049 7.38071C10.9621 6.92352 11.5822 6.66667 12.2288 6.66667C13.5752 6.66667 14.6667 7.75815 14.6667 9.10457ZM21.1716 13.9526L17.3333 10.1144V9.10457C17.3333 7.75815 18.4248 6.66667 19.7712 6.66667C20.4178 6.66667 21.0379 6.92352 21.4951 7.38071L25.3334 11.219V12.2288C25.3334 13.5752 24.2418 14.6667 22.8954 14.6667C22.2489 14.6667 21.6288 14.4098 21.1716 13.9526Z" fill="white"/>
</svg>
