<svg width="32" height="32" viewBox="0 0 32 32" fill="none" xmlns="http://www.w3.org/2000/svg">
<path d="M20.79 15.895C20.79 21.3599 16.3598 25.79 10.895 25.79C5.43017 25.79 1 21.3599 1 15.895C1 10.4301 5.43017 6 10.895 6C16.3598 6 20.79 10.4301 20.79 15.895Z" fill="#68DBFF"/>
<path d="M31.4632 15.895C31.4632 21.3599 27.0764 25.79 21.6652 25.79C16.2539 25.79 11.8672 21.3599 11.8672 15.895C11.8672 10.4301 16.2539 6 21.6652 6C27.0764 6 31.4632 10.4301 31.4632 15.895Z" fill="#FF7917"/>
<path d="M16.3076 24.1815C19.008 22.4147 20.7921 19.3634 20.7921 15.8954C20.7921 12.4275 19.008 9.37623 16.3076 7.60938C13.6337 9.37623 11.8672 12.4275 11.8672 15.8954C11.8672 19.3634 13.6337 22.4147 16.3076 24.1815Z" fill="#5D2C02"/>
</svg>
